<svg id="Layer_1" data-name="Layer 1" xmlns="http://www.w3.org/2000/svg" viewBox="0 0 76.5 76.5"><defs><style>.cls-1{fill:#488bca;}.cls-2{fill:#fff;}</style></defs><title>Health</title><circle class="cls-1" cx="38.25" cy="38.25" r="38.25"/><path class="cls-2" d="M125.58,110.15a0.92,0.92,0,0,1,.7.32,13.72,13.72,0,0,0,0-7.75,11.77,11.77,0,0,0-6.6-7.41,8.8,8.8,0,0,0-3.6-.79A11,11,0,0,0,108.66,98a11,11,0,0,0-7.46-3.43,8.8,8.8,0,0,0-3.6.78,11.77,11.77,0,0,0-6.6,7.41,13.73,13.73,0,0,0,0,7.78,0.92,0.92,0,1,1,.48,1.43,20.11,20.11,0,0,0,1.87,3.69c5,7.86,13.79,13,14.16,13.24a2.2,2.2,0,0,0,2.21,0c0.37-.22,9.14-5.38,14.17-13.24a20.11,20.11,0,0,0,1.86-3.68l-0.21,0A0.91,0.91,0,1,1,125.58,110.15Zm-30.9,1.92a1,1,0,1,1,1-1A1,1,0,0,1,94.69,112.07Zm24.49,0.1H114.5l-2.45,6.21a1.12,1.12,0,0,1-1,.71h0a1.12,1.12,0,0,1-1-.7L105,106.29,103,111.47a1.12,1.12,0,0,1-1,.7H98.16a1.11,1.11,0,1,1,0-2.22h3l2.84-7.06a1.12,1.12,0,0,1,1-.7h0a1.12,1.12,0,0,1,1,.7L111,115l1.7-4.31a1.12,1.12,0,0,1,1-.71h5.44A1.11,1.11,0,1,1,119.18,112.17Zm3.49-.1a1,1,0,1,1,1-1A1,1,0,0,1,122.67,112.07Z" transform="translate(-69.75 -70.25)"/></svg>