<svg id="Layer_1" data-name="Layer 1" xmlns="http://www.w3.org/2000/svg" viewBox="0 0 76.5 76.5"><defs><style>.cls-1{fill:#488bca;}.cls-2{fill:#fff;}</style></defs><title>work_life</title><circle class="cls-1" cx="38.25" cy="38.25" r="38.25"/><path class="cls-2" d="M125.58,110.15a0.92,0.92,0,0,1,.7.32,13.72,13.72,0,0,0,0-7.75,11.77,11.77,0,0,0-6.6-7.41,8.8,8.8,0,0,0-3.6-.79A11,11,0,0,0,108.66,98a11,11,0,0,0-7.46-3.43,8.8,8.8,0,0,0-3.6.78,11.77,11.77,0,0,0-6.6,7.41,13.73,13.73,0,0,0,0,7.78,0.92,0.92,0,1,1,.48,1.43,20.11,20.11,0,0,0,1.87,3.69c5,7.86,13.79,13,14.16,13.24a2.2,2.2,0,0,0,2.21,0c0.37-.22,9.14-5.38,14.17-13.24a20.11,20.11,0,0,0,1.86-3.68l-0.21,0A0.91,0.91,0,1,1,125.58,110.15Zm-30.9,1.92a1,1,0,1,1,1-1A1,1,0,0,1,94.69,112.07Zm24.49,0.1H114.5l-2.45,6.21a1.12,1.12,0,0,1-1,.71h0a1.12,1.12,0,0,1-1-.7L105,106.29,103,111.47a1.12,1.12,0,0,1-1,.7H98.16a1.11,1.11,0,1,1,0-2.22h3l2.84-7.06a1.12,1.12,0,0,1,1-.7h0a1.12,1.12,0,0,1,1,.7L111,115l1.7-4.31a1.12,1.12,0,0,1,1-.71h5.44A1.11,1.11,0,1,1,119.18,112.17Zm3.49-.1a1,1,0,1,1,1-1A1,1,0,0,1,122.67,112.07Z" transform="translate(-69.75 -70.25)"/><circle class="cls-1" cx="38.25" cy="38.25" r="38.25"/><path class="cls-2" d="M112.73,94.68a1.54,1.54,0,0,0-1.59-1.53h-7.27a1.58,1.58,0,0,0-1.59,1.53v3.81H96.93v24.95h21.14V98.49h-5.34V94.68Zm-8.24.34h6v3.47h-6V95ZM107,108.63l5.58,0.6a0.71,0.71,0,0,1,.63.79l-0.2,1.83a0.71,0.71,0,0,1-.78.63l-5.58-.6a0.71,0.71,0,0,1-.63-0.79l0.2-1.83A0.71,0.71,0,0,1,107,108.63ZM102.66,103a2.7,2.7,0,1,1-2.7,2.7A2.7,2.7,0,0,1,102.66,103Zm1.46,15.8c-2,.5-3.83.1-4.08-0.9s1.17-2.22,3.17-2.73,3.83-.1,4.08.9S106.12,118.27,104.12,118.77Zm10.52,2.17-2.32-1.22L110,120.94l0.44-2.58-1.87-1.83,2.59-.38,1.16-2.35,1.16,2.35,2.59,0.38-1.87,1.83Zm-1.14-19.6a0.7,0.7,0,0,1,.81.56l0.54,3a0.7,0.7,0,0,1-.56.81l-3,.54a0.7,0.7,0,0,1-.81-0.56l-0.54-3a0.7,0.7,0,0,1,.56-0.81Z" transform="translate(-69.75 -70.25)"/><path class="cls-2" d="M88.18,101.33v18.92c0,1.59,1,3.18,2.5,3.18h3.81V98.49H90.68A2.72,2.72,0,0,0,88.18,101.33Z" transform="translate(-69.75 -70.25)"/><path class="cls-2" d="M124.32,98.49h-3.75v24.95h3.75a2.72,2.72,0,0,0,2.56-2.84V101.33A2.76,2.76,0,0,0,124.32,98.49Z" transform="translate(-69.75 -70.25)"/><circle class="cls-1" cx="38.25" cy="38.25" r="38.25"/><path class="cls-2" d="M97.72,114.33l0.71,0.53V125h-4.8V118.4Zm2.58,1.95V125h4.8V112.63l-4,4.23Zm6.67-5.62V125h4.8V110.31L109,108.5ZM113.65,125h4.8V104.1l-4.8,5.61V125ZM125.49,93l-0.29,4c-0.05.69-.52,0.88-1,0.42l-1-.9L112.38,109l-3.57-2.35L100.93,115l-3.34-2.52-7.77,7.74A1.26,1.26,0,1,1,88,118.42l9.32-9.29,3.29,2.48,7.78-8.21,3.47,2.29,9.34-10.92L120.42,94a0.6,0.6,0,0,1,.28-1.14l3.65-.9A0.86,0.86,0,0,1,125.49,93Z" transform="translate(-69.75 -70.25)"/><circle class="cls-1" cx="38.25" cy="38.25" r="38.25"/><path class="cls-2" d="M110.18,96.05a9.84,9.84,0,0,0-4.86,0l-17.64,5.35c-1.34.41-1.34,1.07,0,1.47l17.64,5.35a9.84,9.84,0,0,0,4.86,0l17.64-5.35c1.34-.41,1.34-1.07,0-1.47Z" transform="translate(-69.75 -70.25)"/><path class="cls-2" d="M107.75,112l-12.88-4v9.61s2.6,3,12.88,3,12.87-3,12.87-3V108Z" transform="translate(-69.75 -70.25)"/><polygon class="cls-2" points="19.79 42.6 18.36 42.6 18.36 34.95 19.79 35.46 19.79 42.6"/><polygon class="cls-2" points="19.08 41.28 17.28 44.6 19.08 44.6 19.08 41.28"/><polygon class="cls-2" points="19.08 41.28 20.87 44.6 19.08 44.6 19.08 41.28"/><rect class="cls-2" x="17.28" y="44.6" width="3.59" height="2.35"/><circle class="cls-1" cx="38.25" cy="38.25" r="38.25"/><circle class="cls-2" cx="22.98" cy="26.41" r="3.85"/><path class="cls-2" d="M105.78,102.84A1.82,1.82,0,0,0,104,101H93.65a0.16,0.16,0,0,1,0,.16l-0.88,1.58a0.13,0.13,0,0,1-.25,0l-0.88-1.58a0.16,0.16,0,0,1,0-.16h-2.5a1.82,1.82,0,0,0-1.81,1.81v9.07a1.82,1.82,0,0,0,1.81,1.81V123a1.81,1.81,0,1,0,3.63,0,1.81,1.81,0,0,0,3.63,0V104.66H104A1.82,1.82,0,0,0,105.78,102.84Z" transform="translate(-69.75 -70.25)"/><path class="cls-2" d="M123.85,93.51h-8.61a1,1,0,0,0,.05-0.31,1.05,1.05,0,0,0-1-1H111.1a1.05,1.05,0,0,0-1,1,1,1,0,0,0,.05.31H101.5a1,1,0,0,0,0,2.1h21.3v17.82H101.5a1,1,0,0,0,0,2.1h22.35a1.05,1.05,0,0,0,1-1V94.55A1.05,1.05,0,0,0,123.85,93.51Z" transform="translate(-69.75 -70.25)"/><path class="cls-2" d="M113.35,117.23l-0.1-.13a0.83,0.83,0,0,0-1.15,0l-0.1.13-6.24,6.24a0.8,0.8,0,1,0,1.12,1.12l5.79-5.79,5.79,5.79a0.79,0.79,0,1,0,1.12-1.12Z" transform="translate(-69.75 -70.25)"/><rect class="cls-2" x="36.93" y="40.77" width="14.14" height="0.99"/><rect class="cls-2" x="37.24" y="31.39" width="3.01" height="9.04"/><rect class="cls-2" x="41.91" y="32.74" width="3.01" height="7.68"/><rect class="cls-2" x="46.58" y="28.01" width="3.01" height="12.41"/><rect class="cls-2" x="40.73" y="34.7" width="0.7" height="5.73"/><rect class="cls-2" x="45.4" y="29.24" width="0.7" height="11.18"/><rect class="cls-2" x="50.07" y="33.24" width="0.7" height="7.19"/><circle class="cls-1" cx="38.25" cy="38.25" r="38.25"/><path class="cls-2" d="M114.92,125.09a2.62,2.62,0,0,1-2.62-2.62v-5.42a4.39,4.39,0,0,1,.95-2.72,0.58,0.58,0,0,1,.91.72,3.18,3.18,0,0,0-.7,2v5.42a1.46,1.46,0,0,0,1.46,1.46h1.49a0.58,0.58,0,0,1,0,1.16h-1.49Zm11.89-5a5,5,0,0,0-5-5h-6.11a0.58,0.58,0,1,0,0,1.16h6.11a3.8,3.8,0,0,1,2.61,1h-5.17a0.58,0.58,0,0,0,0,1.16h6a3.78,3.78,0,0,1,.32,1h-6.33a0.58,0.58,0,0,0,0,1.16h6.33a3.78,3.78,0,0,1-.32,1h-6a0.58,0.58,0,0,0,0,1.16h5.17a3.8,3.8,0,0,1-2.61,1h-2.95a0.58,0.58,0,0,0,0,1.16h2.95A5,5,0,0,0,126.81,120.11Zm-21-14.64a4.32,4.32,0,0,0,.64,0,4.39,4.39,0,0,0,2.19-.59h0l4.69-2.71a2.62,2.62,0,0,0,1-3.58l-3.45-6a0.58,0.58,0,1,0-1,.58l3.45,6a1.46,1.46,0,0,1-.53,2l-4.69,2.71h0a3.18,3.18,0,0,1-2.08.39A0.58,0.58,0,1,0,105.81,105.47Zm2.72-14.28a0.58,0.58,0,0,0-.36-0.74,5,5,0,0,0-6,7.19h0v0l3,5.26a0.58,0.58,0,1,0,1-.58l-3-5.26v0a3.79,3.79,0,0,1-.41-2.78l2.59,4.48a0.58,0.58,0,0,0,1-.58l-3-5.21a3.78,3.78,0,0,1,.74-0.79l3.17,5.49a0.58,0.58,0,0,0,1-.58l-3.17-5.48a3.81,3.81,0,0,1,1.05-.25l3,5.21a0.58,0.58,0,0,0,1-.58l-2.59-4.48,0.16,0A0.58,0.58,0,0,0,108.54,91.19ZM96.45,113.47l2.94,1.7h0a3.17,3.17,0,0,1,1.38,1.6,0.58,0.58,0,1,0,1.08-.43,4.38,4.38,0,0,0-1.88-2.18h0L97,112.46A0.58,0.58,0,0,0,96.45,113.47Zm-2.6,12.22a5,5,0,0,0,3-2.32v0h0l3-5.26a0.58,0.58,0,1,0-1-.58l-3,5.26v0a3.79,3.79,0,0,1-2.2,1.74L96.25,120a0.58,0.58,0,1,0-1-.58l-3,5.21a3.77,3.77,0,0,1-1.06-.25l3.17-5.49a0.58,0.58,0,0,0-1-.58l-3.17,5.49a3.78,3.78,0,0,1-.74-0.79l3-5.21a0.58,0.58,0,1,0-1-.58l-2.59,4.48a3.79,3.79,0,0,1,.41-2.78l3.45-6a1.46,1.46,0,0,1,2-.53,0.58,0.58,0,0,0,.58-1,2.62,2.62,0,0,0-3.58,1l-3.45,6a5,5,0,0,0,4.31,7.47A5,5,0,0,0,93.85,125.69Z" transform="translate(-69.75 -70.25)"/><path class="cls-2" d="M116.31,114.37H124l-7.52-13.07-7,4,4.42,7.69A2.79,2.79,0,0,0,116.31,114.37Z" transform="translate(-69.75 -70.25)"/><path class="cls-2" d="M104.31,102.8l-1.86-3.23-2-3.42-7.55,13,7,4,4.45-7.68A2.79,2.79,0,0,0,104.31,102.8Z" transform="translate(-69.75 -70.25)"/><path class="cls-2" d="M111.53,117.6h-8.87a2.79,2.79,0,0,0-2.36,1.4l-1.86,3.23-2,3.42h15.08v-8Z" transform="translate(-69.75 -70.25)"/></svg>