<svg id="Layer_1" xmlns="http://www.w3.org/2000/svg" viewBox="0 0 66 66"><style>.st0{fill:#00273d}.st1{fill:#fff}</style><title>Untitled-4</title><circle class="st0" cx="33" cy="33" r="32.3"/><path class="st1" d="M13 30l7.4-10.2c.4-.6 1.2-.7 1.8-.3l4.2 3.1c.6.4.7 1.2.3 1.8l-7.4 10.2c-.4.6-1.2.7-1.8.3l-4.2-3.1c-.6-.4-.7-1.2-.3-1.8zm19.2 13.1c-.3-.2-.6-.4-1-.4-.5 0-.9.1-1.3.5.3-.6.2-1.3-.2-1.8-.3-.3-.6-.5-1-.7-.6-.2-1.2-.1-1.7.3.3-.5.3-1 0-1.5-.2-.4-.5-.7-.8-.9-.6-.3-1.3-.4-1.9-.1.4-.4.6-1 .4-1.6-.1-.4-.3-.8-.6-1.1-.6-.6-1.5-.7-2.2-.3-1.9 1.1-2.7.8-3.3 2-.2.6 0 1.3.3 1.9.3.6.8 1 1.4 1.2.4.1.8 0 1.1-.1-.2.2-.3.5-.3.8 0 .7.2 1.3.7 1.8.4.5 1 .9 1.6.9.4 0 .8-.1 1.1-.3-.2.3-.2.7-.2 1 .1.6.5 1.2 1.1 1.6.5.4 1.2.6 1.8.5.4-.1.7-.3 1-.6 0 .2 0 .5.1.7.2.5.7.9 1.2 1.1.5.3 1.1.3 1.6.1 1-.6.9-1.2 1.4-3 .4-.7.3-1.5-.3-2zm15.1-9.7c.4.6 1.2.7 1.8.3l4.2-3.1c.6-.4.7-1.2.3-1.8l-7.4-10.2c-.4-.6-1.2-.7-1.8-.3l-4.2 3.1c-.6.4-.7 1.2-.3 1.8l7.4 10.2z"/><path class="st1" d="M45.9 34.2L37.7 23l-2.7-.4c-2.2-.4-3.2-.5-4.1-.2-.9.7-1.7 1.5-2.4 2.3-.4.6-.8 1.2-1.1 1.8-.4.8-.5 1.8-.1 2.6.6 1.6 1 3.4 1.1 5.1-.2.8 2.8 1.6 3.5-2.1.3-1.2.2-2.4-.1-3.6l.5-.4c.8.5 1.6 1 2.6 1.3.4.2.9.3 1.3.4.8.2 1.7.3 2.6.3.2.3.3.7.6 1 1.2 1.6 2.7 2.9 4.5 3.8 1 .4 1.9 1.1 2.3 2.1.1.4.2.8.1 1.2-.2 1.5-2.1 1.8-3.3 1.5.7.7 1.7 2.1 1.1 3.1-.3.4-.7.7-1.2.9h-.7c-.7-.2-1.4-.6-1.9-1.2.2.3 1 2.4-.4 3.4-.2.2-.5.3-.7.3-.9.3-1.9 0-2.5-.7.3.6.3 1.4-.1 2-.3.6-1 .9-1.6.8-.4-.1-.8-.4-1.1-.8-.2.5-.5 1-.9 1.3l.2.2.9.6c.3.1.6.2.9.2h.6c1.2-.1 2.2-1 2.5-2.2.3.1.5.1.8.1 1.5 0 2.9-1.1 3.2-2.6.2 0 .4.1.7.1 1.8 0 3.2-1.4 3.2-3.2 0-.3-.1-.7-.2-1 1.2-.4 2-1.4 2.2-2.6.1-.4.1-.9 0-1.3s-.2-.8-.4-1.1c-.6-.6-1.1-1.2-1.7-1.8z"/></svg>