<svg id="Layer_1" xmlns="http://www.w3.org/2000/svg" viewBox="0 0 66 66"><style>.st0{fill:#00273d}.st1,.st2{fill:#fff}.st2{stroke:#00273d;stroke-width:.5;stroke-miterlimit:10}</style><title>People_logo</title><circle class="st0" cx="33" cy="33" r="32.3"/><path class="st1" d="M27.7 23.1h-6.3c-1.6.1-2.7 1.5-2.6 3.1v10.2c-.1 1.6 1.1 2.9 2.6 3.1h.5v8.7c-.1 1.1.8 2.1 1.9 2.2h1.5c1.1-.1 2-1 1.9-2.1v-8.8h.5c1.6-.1 2.7-1.5 2.6-3V26.2c.1-1.6-1-2.9-2.6-3.1z"/><circle class="st1" cx="24.5" cy="19" r="3.5"/><path class="st1" d="M44.1 23.1h-6.3c-1.6.1-2.7 1.5-2.6 3.1v10.2c-.1 1.6 1.1 2.9 2.6 3.1h.5v8.7c0 1.1.8 2.1 1.9 2.2h1.5c1.1-.1 2-1 1.9-2.1v-8.8h.5c1.6-.1 2.7-1.5 2.6-3V26.2c.2-1.6-1-2.9-2.6-3.1.1 0 0 0 0 0z"/><circle class="st1" cx="41" cy="19" r="3.5"/><path class="st2" d="M35.9 26.7h-6.3c-1.6.1-2.7 1.5-2.6 3.1V40c-.1 1.6 1 2.9 2.6 3.1h.5v8.7c-.1 1.1.8 2.1 1.9 2.2h1.5c1.1-.1 2-1 1.9-2.2V43h.6c1.6-.1 2.7-1.5 2.6-3.1V29.7c.1-1.5-1.1-2.9-2.7-3z"/><circle class="st2" cx="32.8" cy="22.5" r="3.5"/></svg>