<svg id="Layer_1" xmlns="http://www.w3.org/2000/svg" viewBox="0 0 66 66"><style>.st0{fill:#00273d}.st1{fill:#fff}</style><title>Performance_logo</title><circle class="st0" cx="33" cy="33" r="32.3"/><ellipse transform="rotate(-82.738 28.662 33.31)" class="st1" cx="28.7" cy="33.3" rx="1.9" ry="1.9"/><path class="st1" d="M28.8 33.8c-.2.1-.6.1-.7-.2-.1-.3 0-.6.2-.7l19.1-10c.2-.1.6 0 .7.2.1.2 0 .6-.2.7l-19.1 10z"/><path class="st1" d="M40.1 30c1.8 6.3-1.8 12.9-8.1 14.8S19.1 43 17.2 36.7s1.8-12.9 8.1-14.8c4.6-1.4 9.6.2 12.6 3.9l1.3-.7c-4.5-5.8-12.9-6.9-18.7-2.4s-6.9 12.9-2.4 18.7 12.9 6.9 18.7 2.4c4.4-3.4 6.3-9.3 4.6-14.6l-1.3.8z"/><path class="st1" d="M36.7 31.8c.9 4.4-2 8.7-6.5 9.6-4.4.9-8.7-2-9.6-6.5-.9-4.4 2-8.7 6.5-9.6 2.7-.5 5.5.4 7.4 2.3l1.4-.7c-3.6-3.9-9.6-4.2-13.6-.7s-4.2 9.6-.7 13.6c3.6 3.9 9.6 4.2 13.6.7 2.6-2.4 3.7-6 2.9-9.4l-1.4.7z"/><path class="st1" d="M34.5 32.9l-1.4.8v.2c-.3 2.4-2.5 4.2-5 3.9s-4.2-2.5-3.9-5c.3-2.4 2.5-4.2 5-3.9.6.1 1.2.3 1.7.6l1.5-.8c-2.5-2.1-6.2-1.7-8.3.8-2.1 2.5-1.7 6.2.8 8.3s6.2 1.7 8.3-.8c1-1.1 1.5-2.6 1.3-4.1zm7.5-7.8l5.2-2.7c.2-.1.3-.1.5-.1h.1l.2-2.8c0-.8-.7-.4-1.3-.1l-3.9 1.9c-.4.2-.7.6-.6 1.1l-.2 2.7zm9 .3L48.6 24c-.1.2-.3.3-.4.4L43 27.1l2.2 1.4c.3.3.8.4 1.2.1l3.9-2c.6-.3 1.4-.8.7-1.2z"/></svg>