<svg id="Layer_1" xmlns="http://www.w3.org/2000/svg" viewBox="0 0 66 66"><style>.st0{fill:#00273d}.st1{fill:#fff}</style><title>Responsibility_logo</title><circle class="st0" cx="33" cy="33" r="32.3"/><path class="st1" d="M31.7 14C21.4 14 13 22.4 13 32.7s8.4 18.8 18.8 18.8 18.7-8.4 18.7-18.8c0-10.3-8.4-18.7-18.8-18.7zm11.8 30.6c-6.5 6.5-17.1 6.5-23.7 0-6.5-6.5-6.5-17.1 0-23.7 6.5-6.5 17.1-6.5 23.7 0 3.1 3.1 4.9 7.4 4.9 11.8.1 4.5-1.7 8.7-4.9 11.9z"/><path class="st1" d="M28.3 34c-.6-.5-1.1-1.1-1.6-1.6-.5-.4-.9.1-1.3-.6s-1.6-.3-2-.8c-.6-.8-2.1 2.2-2.1-.2 0-.6-1.1-.2-1-.6s.4-.8.5-1.2c0-.1-.1-.3-.1-.2-.3.4-.8.7-1.3.9-.9.2-.8-1.2-.5-1.7.3-.4.8-.7 1.4-.6.6 0 .8-.2 1.1.3.1.3.3.5.6.6 0 0-.1-1.1 0-1.3.3-.7 1.1-.7 1.4-1.4.4-1.2 1.7-.8 2.5-1.5.7-.5.2-1.4 1.1-1.5-.1.6-.2.9.5.9.4 0 1.3-.3.7-.8s-.8-3.8-2-2.6c.1-1-.4-1.4-1.4-.9-.6.3-.3.3-.3.8-.1.5-.4.9-.7 1.3-.3-.3-.6-.6-1-.8-.4.3-.8.6-1.2 1-2.1 1.9-3.6 4.3-4.4 6.9-.3 1.1 0 1.3 1 1.8.9.5 1.7 1.1 2.5 1.7.4.2.8.2 1.2 0 .2.3.3.7.1 1.1-.3.7-.5 1.5-.5 2.2.1.7.6 1.4 1.2 1.8.3.2.9.6.7 1 0 .5 0 .9.2 1.4v1.7c0 .6.1.9.1 1.4-.1.4-.1.7-.2 1.1l.6.6c.2.4-.2.8.1 1.2s1.2 1.5 1.6 1.6c.3 0 .6-.2.7-.4.2-.3-.6-.6-.8-.6-.6-.2.3-1.2-.3-1.8.4-.2.5-.7.2-1.1.2 0 .4-.2.5-.3.3-.5.5-.9.7-1.4.5-.5.1.4.3-.3.2-.3.4-.6.5-.9v-.5c.3-.2.5-.3.8-.6.1-.2.1-.5.4-.5.4-.1.7-.4.7-.8V37c.1-.3.3-.7.5-1 .3-.4.2-1-.2-1.4-.5-.5-1-.4-1.5-.6zm18 2.5c0-.1-.1-.2-.2-.2-.2 0-.2.3-.2.8 0 .1 0 .3-.1.4-.4.3-.5.7-.4 1.2v.4h.1l.2-.1c.4-.9.7-1.8.9-2.8l-.1.2-.2.1zm-14.6-19c-.8 0-1.7.1-2.5.2H29v.4c0 .8.3 1.5.9 2l.2.2c.1.1.2.2.3.2.4-.2.6-.6.6-1 0-.1 0-.2.1-.3.2-.1.4-.2.5-.3.2-.1.3-.2.5-.3.2-.1.4-.2.6-.4.1-.1.2-.2.4-.3.1 0 .2-.1.3-.1.1 0 .2-.1.3-.2-.7-.1-1.3-.1-2-.1zm15 12.3c-.9-4.5-3.7-8.4-7.8-10.5-.6-.3-.8.6-1 1.1-.5.9.1.8.8.6-.2.5-.5.9-.8 1.2-.6.2-1.1.5-1.4 1-.1-.7.4-.3.6-.8.1-.5 0-1-.3-1.4-.1-.3-.9-1.3-.9-.4 0 .5.7 1.2.1 1.4s.2 1.1.4 1.3.1.9.3 1.3c-.5-.1-.9-.2-1.4-.2-.1.7 0 1.5.4 2.2-.6.4-.8 1.4-1.3 1.9-.4.4-.6 1.1-.5 1.7 0 .9.6 1.3.9 2.1s1.2.8 1.9.6c.4-.1.7-.2 1.1-.2.3.1.5.3.7.4.1-.1.2-.2.3-.2.2.3.2.7 0 1.1-.3.7.8 1.1 1.1 1.7s.1.8-.5.8c-.3 0 .2 1.4.2 1.6.2.3.3.7.3 1.1-.2.3-.1.6.1.9.5.4.2.8.7.8 1.1.1 2.2-.4 2.6-1.5.2-.5.6-.5.7-.9.2-.7-.5-1.3.5-1.3s.5-2.4.5-2.9c0-.2.2-.2.3-.2.4 0 .6-.7.8-1 .3-.3.6-.6.8-1 0-.7 0-1.5-.2-2.3zM41.4 27c-.8 0-.7.5-1.4.1-.2-.1-.5-.1-.7-.1-.6-.2.2-.8 0-1.2-.3-.5-2.6.4-3 .6.5-.3.9-.6 1.3-1 .2-.3.2-.9.6-.9.4 0 .9.1 1.2.4.2.1.3.2.3.4s-.1.4-.3.6c.1.3.7-.3.7-.4.4.6.9.4 1.3-.1.7.9 1.1.3 2 .5.4.1-.3 1.5-.4 1.7-.3-.5-1-.7-1.6-.6zm2.1.7l-.2-.2.2-.2.3.6-.3-.2zm2.8 3.6c-.8-.1-1.4-.6-1.6-1.4-.1-.5-.3-1.1-.5-1.6.4.4.7.8.9 1.3.2.4.3.8.4 1.2.1 0 .1-.1.2-.2.3.1.6.3.8.4l-.2.3z"/><path class="st1" d="M34.8 22c0 .1 0 .1.1.2h.5c.3 0 .5-.1.6-.4 0-.1 0-.1-.1-.1h-.2c-.4-.1-.7.1-.9.3zm-.3-2.4l.2-.1h.1c.1 0 .2 0 .2.1.1 0 .1.1.2.1s.1 0-.2-.9v-.1c0-.1-.2-.2-.3-.2h-.9c-.1 0-.3 0-.4.2-.1.2-.1.4-.1.6v.1h.1c.1 0 .2-.1.3-.1.2 0 .3.1.4.2.1 0 .2.1.4.1zm-7.8-1h.4v-.1l-.1-.1-.1-.2-.6.2-.3.2c.1 0 .3.1.4.1l.3-.1zm1.1-.5l.1-.1h-.3l-.4.1h.1c.2.1.4.1.5 0z"/></svg>