<svg id="Layer_1" xmlns="http://www.w3.org/2000/svg" viewBox="0 0 66 66"><style>.st0{fill:#00273d}.st1{fill:#fff}</style><title>service_logo</title><circle class="st0" cx="33.1" cy="33" r="32.3"/><path class="st1" d="M46.2 27.7c2.1.8 3.5 2.8 3.5 5v1.9c0 2.8-2.1 5.1-4.8 5.4-1.5 4.4-5.3 7.6-9.8 8.4-.2 1.2-1.3 2-2.5 1.8-1.2-.2-2-1.3-1.8-2.5.2-1.2 1.3-2 2.5-1.8.9.1 1.6.9 1.8 1.8 4.2-.8 7.7-3.7 9.1-7.7-.2-.1-.4-.3-.3-.5V27.9c0-.2.1-.3.2-.4-1.4-6.1-7.5-9.9-13.7-8.5-4.2 1-7.5 4.3-8.5 8.5.1.1.2.3.2.4v11.6c0 .3-.2.5-.5.5-3 0-5.4-2.4-5.4-5.4v-1.9c0-2.2 1.4-4.2 3.5-5 1.1-7.4 8-12.4 15.4-11.3 5.7 1 10.2 5.6 11.1 11.3z"/></svg>