<svg xmlns="http://www.w3.org/2000/svg" viewBox="0 0 434.37 165.37"><title>signature-logo</title><path fill="#fff" d="M175.12 114.14v-3.84h-7.73v16.19h4.37v-6.19h3.15v-3.83h-3.15v-2.33h3.36zm12.08-3.84v16.2h7.67v-3.83h-3.29V110.3h-4.38zm18.92 0h4.39v16.19h-4.39zm22.29 3.63c.77 0 1.2 1 1.24 1.66l4.23-1.56a5.94 5.94 0 0 0-5.52-4c-4.75 0-6.28 4.44-6.28 8.47s1.55 8.27 6.33 8.27c5.06 0 5.84-5 5.84-8.94v-.69h-6.09v3.4h1.62c0 1-.34 2.33-1.51 2.33-1.69 0-1.6-2.83-1.68-4s-.17-4.95 1.86-4.95m14.6-3.62v16.2h4.38v-6.58h2.09v6.58h4.36v-16.2h-4.36v5.81h-2.09v-5.81h-4.38zm22.12 3.95h2.41v12.24h4.38v-12.24h2.52v-3.95h-9.31v3.95zm38.98 2.32a9.27 9.27 0 0 1-.79-.66 1.4 1.4 0 0 1-.44-.9 1.1 1.1 0 0 1 1.15-1 3.56 3.56 0 0 1 2.58 1.74v-4.92a6.78 6.78 0 0 0-3.11-.81c-3.74 0-4.95 3.43-4.95 5.33a4.66 4.66 0 0 0 .89 2.83 10.31 10.31 0 0 0 2.16 2.07 4.19 4.19 0 0 1 .74.61 1.3 1.3 0 0 1 .34.9 1.18 1.18 0 0 1-1.3 1.07 3.71 3.71 0 0 1-2.77-1.79v5.06a8.66 8.66 0 0 0 3.29.66 5.16 5.16 0 0 0 5.17-5.41 4.61 4.61 0 0 0-.79-2.81 8.58 8.58 0 0 0-2.16-2m21.02 3.96a5.15 5.15 0 0 1-.11 1.42.94.94 0 0 1-1 .78 1 1 0 0 1-1-.79 5.07 5.07 0 0 1-.11-1.43V110.3h-4.38v10.6c0 1.94.43 5.88 5.49 5.88s5.51-3.93 5.51-5.87V110.3h-4.39v10.2zm20.33-10.2h-4v16.19h4.37v-5.31c3.81.11 6.39-1.18 6.39-5.38s-3-5.5-6.77-5.5m.38 7.24v-3.74h.32a1.75 1.75 0 0 1 1.64 2 1.68 1.68 0 0 1-2 1.8m21.69-7.3h-4v16.19h4.38v-5.31c3.81.11 6.38-1.18 6.38-5.38s-2.94-5.5-6.76-5.5m.39 7.24v-3.74h.33a1.74 1.74 0 0 1 1.63 2 1.68 1.68 0 0 1-2 1.8m20.77-7.6c-4.45 0-6.19 4.42-6.19 8.36s1.75 8.38 6.19 8.38 6.18-4.41 6.18-8.38-1.73-8.36-6.18-8.36m0 12.67c-1.66 0-1.74-3.29-1.74-4.31s.07-4.29 1.74-4.29 1.72 3.29 1.72 4.29-.07 4.31-1.72 4.31m21.95 3.83h4.74l-3.27-6.74a4.1 4.1 0 0 0 2.52-4.06c0-4.28-2.76-5.39-6.56-5.39h-4.22v16.19h4.37v-6.7zm-2.42-12.72a1.78 1.78 0 0 1 2.07 2 1.87 1.87 0 0 1-1.77 2.05h-.29v-4zm16.88-3.48v3.95h2.42v12.25h4.38v-12.25h2.51v-3.95h-9.31zM207.77 38.19c-.74-1.15-2-.89-3.08-.79-8.18 4-15.07 10.89-21.64 17-.21.12-.33.09-.4 0l4.45-7.56c1.82-2.45 2.91-5.34 4.84-7.73.55-1.69 2.25-2.48 2-4.61-1.87-3.11-4.3-.36-6.5.13-1.07.71-1.94 1.61-3.3 1.76a84.08 84.08 0 0 0-11.44 8.37c-6.7 5.88-13.39 12.94-20.18 18.89a3.81 3.81 0 0 0-1.84 2.77c-.25.33-.46.67-.85 1.12 1.68-4.37 4.43-8.21 6.68-12.28 4.91-8.87 11.45-17.11 17.79-24.95l-1.46-.16a24.71 24.71 0 0 0-8.17 5.64c-.72.64-1.34 1.76-2.23 2.1-4.26.15-7.75 2.19-11.33 4.24-3.19 2.9-7.35 4.46-10.26 7.71-1.77 2.67-4.93 3.86-6.4 6.8-1.77 1.78-3.87 4-4.86 6.36-1.9.74-.8 2.83-2.54 3.4-1.38 3.52-4.22 6.06-3.69 10.24a7.87 7.87 0 0 0 2.87 1.69c4.07-2.51 7.61-5.72 11.36-8.63l1.27-.34c2.23-1.37 3.74-3.46 5.37-5.43 1.45-.65 1.82-2 2.77-3.13-.07.11-.12.23-.19.35-4 8.07-7.85 16.36-11.89 24.44-3 7.8-8.94 14-12.37 21.55a28 28 0 0 0-3.88 10.69 1.77 1.77 0 0 0 1.38 1.13l.52.16a4.57 4.57 0 0 0 4.72-2.39c1.64-4.53 4.48-8.61 6.11-13.14.2-1.17 1.72-1.71 1.52-3.28 3-4.95 3.9-10.65 8-15a13.58 13.58 0 0 1 1.85-4.42c4.57-4.91 8.28-10.52 13.06-15.23 4.62-6.86 11.9-11.34 17.57-17.27 1.46-2.35 4-3.47 5.82-5.46 1.5-.87 2.63-2.46 4.25-3 .06.27 0 .55 0 .82-.87 3.36-3.34 6-4.8 9.11a.9.9 0 0 1-.3.48l-.18.18a1.37 1.37 0 0 0-.53 1.08c-1.14 2.22-2.9 4-4 6.24-.42 1.36-2 2.06-2.14 3.69-2.49 3.55-4.29 7.31-6.87 10.8l-.14 1a1.07 1.07 0 0 0 .92 1.6c3-1.2 5.39-4 7.07-6.66 7.62-7.67 15.16-15.15 23.17-22.55a3.6 3.6 0 0 1 1.14-.52 13.41 13.41 0 0 1-1.53 3.42c-2.37 5.15-5.52 9.82-8 14.9-3.05 6.93-7.51 13.52-10.2 20.67-.61 1.52-1.37 2.08-.83 3.87 2.59-1.08 4.21-2.86 6.31-4.58 2.07-1.24 1-3.47 2.62-4.73 3.39-6.76 9.91-11.39 14.68-17.11a.89.89 0 0 0-1-.53 87.31 87.31 0 0 0-8.37 7.21 5.26 5.26 0 0 0-.66.44c.55-1.15 1.17-2.31 1.78-3.47 2.54-2.79 3.05-6.3 6.13-8.94a10.37 10.37 0 0 1 2.61-4.41c.51-1.72 2.09-2.86 2.55-4.64.78-1.41 2.38-2.23 2.76-3.9.58-1.82 3.65-2.66 2.17-5.12m-76.32 34c-.22 0-.24-.18-.18-.34.56-2.79 3-4.79 4.13-7.36 5.45-7 10.7-14.39 17.91-19.68a2.44 2.44 0 0 0 1.54-.33l.45-.25a1 1 0 0 1 1.13-.17 21.36 21.36 0 0 1-1.78 3.62c-.75 1.23-1.57 2.45-2.34 3.68-6.33 7.45-12.68 15.29-20.86 20.82m-14.81-7.44a.57.57 0 0 1-.36-.49c4.38-7.92 8.65-16.07 15-23.07 1.34-2.48 3.89-3.75 6-5.51a1.13 1.13 0 0 0-.07-1.07c-2.13-.57-4.25.35-6.38.57a25.18 25.18 0 0 0-5.93 6c-7 5.95-14.65 10.61-21.68 16.35-4 3.47-7.72 6.85-11.32 10.62a.86.86 0 0 1-1.25-.23 50.41 50.41 0 0 0-3.77-10.6c-3.39-6.94-7.29-13.66-9.05-21.24-.94-3-.51-6.37 0-9.34 1.34-4.32 4.24-7.22 7.79-10.46a66.44 66.44 0 0 1 24-11.62c3.39-.91 7.36-1.12 10 1.5 1.34 1.41 1 3.9.63 5.67-2.26 4.95-5 9.62-5.52 15.28a1 1 0 0 0 .84 1.14c1 0 1.49-1.21 1.85-1.92a24.93 24.93 0 0 1 3.47-10.62c3.38-3.47 7.92-6.92 6.37-12.16-2.42-3.7-6.94-3.76-11.26-3.55-6.59 1.77-13.53 2.67-19.48 5.92-8.64 4.6-18.41 9.92-23.71 19-4.12 6.52-3 16.35.34 22.93 1.69 5.39 5.24 10.07 7.16 15.44.84.78.36 2.12 1.33 2.9a36.65 36.65 0 0 1 2.35 10.54c1 6.59-1.92 12-6.45 16.57-14.15 9.27-34 9.62-50.12 4.45C20.54 95.4 13.25 93.14 8 87.27c-.71-1.63-2.62-3-2.35-5.17-.92-1.19-.13-2.82 0-4.17 3-4.8 8.44-7.56 13.24-9.9.08-.15.23-.5-.06-.65-4.53-.05-7.93 2.83-11.41 5.39-4 3.75-8.28 8-7.29 13.94 1.35 8.29 10.5 12.52 17.21 15.2 11.06 3.9 23.73 5.81 36 4 9.84-1.63 19.25-4.45 27.1-11a27 27 0 0 0 11.06-21.3L94 69.5c7.29-9.21 17.36-16.13 27-22.51a201.25 201.25 0 0 0-12.12 22q-1.91 4.22-3.4 8.49c-.06.69-.7 1.61 0 2.12 2.63-.15 4.76-1.85 6.52-3.68 1.13-4.76 4.9-8.71 8.15-12.4-1.13.28-2.05 1.49-3.4 1.34m128.6-32.02c-2.34 0-4.33 1.41-6.31 2.55-1.56 2.33-4.47 2.12-6.86 2.84-3.61 2.05-7.45 3.89-10.76 6.58-1.29 1.56-3.35 2.05-4.25 3.82-1.64.63-1.55 2.42-3.27 2.76a29.52 29.52 0 0 0-2.61 3.26c-1.7 1-2.55 2.69-4 4 .15 1.41-1.34 2.19-1.78 3.39-2.26 2.62-3.46 5.88-4.79 9-.59 1.55-1.49 3.12-1.14 4.73.13 1.43 1.84 1.28 2.48 1.79a2.44 2.44 0 0 0 2.48-.92c1.42-.93 2.2-2.63 3.89-3.13l7.46-6.51c2-1.85 2.76-4.11 5.16-5.67a10 10 0 0 1 3-3.83c-.14 2-2.11 3.17-2.06 5.23-.21.64-1 1-.84 1.7-2.06 5.1-4.89 9.91-5.31 15.51.7.2.7 1.48 1.69 1.27a41.31 41.31 0 0 0 12.82-9.28c.15-.35.79-.64.43-1.13-2.62 1.41-4.82 3.74-7.44 5.1a.7.7 0 0 1-1.13-.22 13.4 13.4 0 0 1 1.91-5.94l1.13-3.4c4.61-10.84 10.13-21.32 18-30.66.51-1.06 2-1.34 2.21-2.54zm-34.57 36.6c-1.54.71-2.54 2.83-4.24 2.76-.7-3.11 2.62-5 3.46-7.79A110.81 110.81 0 0 1 227.58 43c1.34.14 2.33-1 3.66-.37l.23.42c-4.38 10.05-12.24 18.34-20.68 26.34m-70.94-50.14a11 11 0 0 1-.65 3.47c1.64-.63 2.63-2.55 3.48-4 1.2-1.55 3.33-2.47 4.18-4.24a5.38 5.38 0 0 0-1.71-1.77c-3.19-1.35-5.3 2.34-7.43 4.11-.64 1.63 1.84.85 2.13 2.4m164.47 46.25c3.61-4.74 9.2-7.43 13.8-10.83a2.1 2.1 0 0 0 1.5-1.27c-2.69.57-5 2-7.5 3-2 2.26-4.82 2.34-6.73 4.88-.43.21-.93.78-1.42.21a4.4 4.4 0 0 1 1.57-3c.42-2.13 2.53-3.61 3.6-5.66 1.14-.71 1.71-2 2.84-2.91-.57-1.83 1.7-2.56 1.83-4.25-.64-1-1.91-1.7-2.61-2.76-1.42-1.49-3.2-2.54-4.67-4-.93-2.26 2-3.4 2.27-5.37.14-.57-.14-.92-.65-.86-2 1.13-3.45 3.05-5.44 4.25-.51 1.77-2.12 3-3.06 4.67-.78.79-1.9 1.56-2.05 2.62-4.38 4-7.29 9.2-11.89 12.82-.49.71-.44 1.91-1.56 2-3.18 3.69-6.73 7.08-10.2 10.63l-.49.06c.36-1.68 1.63-3 2.13-4.73 3.18-5 5.67-10.47 9.77-15.09 1.27-2.39 3.46-4.51 5.1-6.79a1.38 1.38 0 0 0 .21-1.56c-2.41-.14-4.11 1.56-6.15 2.19l-3.55 3c-4.11 4.87-8.51 9.83-12.61 14.8-3.54 3.32-6.58 7.3-10.83 9.41-.57.06-.71-.36-.65-.86 3.83-6.57 7.36-13.44 11.41-20 2.77-3.12 4.81-6.59 7.78-9.62v-.53h-1a18.49 18.49 0 0 0-10.42 7.36l-4.53 3.54c-.63 1.27 1.07.15 1.26 1l-1.55 3.4c-3.89 6.73-8 13.38-10.89 20.52.49 1.13 2.05.78 3 .58 5.79-1.63 10.54-6.58 15.21-10.41.93-1 2.2-2.62 3.68-2.41.3 1.2-.77 2.05-1.19 3-1.21 2.69-2.77 4.95-4 7.57-.91 3.18-3.61 5.66-4.39 8.92 0 .63-.06 1.49.64 1.55 5.81-3.32 7.87-9.77 13.24-13.52 3.61-4.18 8.08-7.15 11.2-11.54 5.73-5 9.11-11 14.77-16 1.79 1.28 4 2.83 5 4.88-.48 1.49-2 2.63-2.54 4.1-5 7.93-10.41 15.87-15.37 23.71-.7.93-1.55 2.27-.85 3.34.44.35 1 0 1.49 0 2.82-1.71 6.09-3.55 7.58-6.8 2-3.33 5.73-4.39 8-7.29"/><path d="M204.22 30.58c4-1.85 8.84-.79 13.23-1.55 2.92-.29 5.53.9 8.28.27 1.77.92 3.42-.71 5.25.08l5.1-.21c5.31.7 11.55-.65 17.06.27a5.62 5.62 0 0 1 2.84.08 20.09 20.09 0 0 1 5.53-.14v.35c-1.07 1.12-1.92 2.47-2.92 3.69-.92 2-3.11 3.39-3.75 5.44-3.47 4.11-5.58 8.91-9 13.09-2.91 3.18-5.59 6.79-8.57 10.11 2.55-.76 4.53-3.47 6.52-4.94l-.21 1.63c-1.42 1.69-1.71 3.54-2.56 5.45-1.63 4.88-2.61 10-3.75 15-.57 6.59-.92 13.88.93 19.89.77.78 2.18.64 3.25.42-.16-1 1.27-1.48 1.06-2.54.57-1.63-1.26-.79-1.7-1.63-1.49-1.49-1.2-3.75-2.19-5.52-.5-4.24-.3-9 1.47-12.74a22.94 22.94 0 0 1 2.77-7.42c1.21-2.77 2.41-5.53 3.89-8.22 6.66-10.76 13.88-21.65 22.52-31.5l6.09.06c1.84-.35 3.68.78 5.6 0 1.27-.14 2.48.71 3.55 0 7.15-.49 14.29.35 21.3.28 2.9-.2 6.09.21 8.43-1.34a1.42 1.42 0 0 0 .2-1.57c-3.32 0-6.86.08-10.12.28-2.27-.28-4.11.92-6.29.21-7.16.22-15.1-.35-22.11-.13-1.41-.43-3.31.64-4.23-.57 2-2.89 4.88-5.31 7.15-8l.07-.78a1.23 1.23 0 0 0-1.34-.71c-4 1.7-8.36 2.7-11.26 6.59-1.22.76-1.42 2.26-2.62 2.89-7.16.07-13.74-.14-20.59-.21-3.54-.14-6.59-.77-10.13-.42-1.49.92-2.84-.58-4.46-.35-1.95.17-3.41.62-4.81.12l-8.58.23c-2.69-.78-5.59.14-8.35-.14-1.76-.72-3.81.29-5.53-.2-.76.62-1.4 0-2.26 0-.56.69-2.26.62-1.7 1.82 2.13 1.21 4.19 3 7 2.56m152.31 24.29c-1.49 1.05-3.54-.35-4.75 1 .13 4.1-2.2 7.43-5.31 10-4.4 4.66-10.26 6.36-15.93 8.06-3.4.49-8 3.17-10.56-.36-.49-4.53 1.43-8.48 3.61-12.1.29-1.45 1.49-2.2 2.35-3.45 2.68-.51 0 2.75 1.34 3.81a28.4 28.4 0 0 0 8.2-4.32c1.64-2.54 3.2-5 4.81-7.64 1.77-3.54 4.75-6.58 6-10.4-1.2-2.2-3.74-.29-5.51-.36a26.66 26.66 0 0 0-14.58 9c-.94.91-1 2.47-2.28 3-1.83 2.62-3.54 5.31-5.24 8-1.85 4.38-4.6 8.27-6.09 12.81-.29 2.69-1.55 6.59 1.49 8.15 2.41.77 5.1 0 7.37-.64 9.35-3.4 18.83-6.36 26.69-13.16 4-2.41 8.07-6.58 9.21-11a.78.78 0 0 0-.78-.35m-25-5.16c1.47-2.2 3.1-4.11 4.73-6.23a1.84 1.84 0 0 1 1.21-.42c.13 5.23-4.26 8.84-6.33 13.3-.56.65-.84-.57-1.49-.43-.61-.19-1.26.23-1.67-.26.26-2.42 2.32-4 3.54-6m28.26 23.46A3.92 3.92 0 0 0 357 72a3.87 3.87 0 0 0-2.85 1.18 3.92 3.92 0 0 0-1.2 2.86 4 4 0 0 0 1.18 2.88 4.07 4.07 0 1 0 5.76-5.74m-.41 5.35a3.48 3.48 0 0 1-6-2.49 3.39 3.39 0 0 1 1-2.46 3.29 3.29 0 0 1 2.45-1 3.49 3.49 0 0 1 3.5 3.5 3.38 3.38 0 0 1-1 2.49" fill="#fff"/><path d="M358.83 75.07a1.11 1.11 0 0 0-.69-1.13 3.5 3.5 0 0 0-1.21-.16h-1.56v4.46h.78v-1.76h.63a1.94 1.94 0 0 1 .88.14 1.09 1.09 0 0 1 .41 1v.63l.73-.07a.52.52 0 0 1 0-.21v-.68a1.35 1.35 0 0 0-.24-.69 1.16 1.16 0 0 0-.76-.43 1.55 1.55 0 0 0 .64-.21 1 1 0 0 0 .44-.88m-1.23.75a1.81 1.81 0 0 1-.74.11h-.72v-1.6h.67a1.86 1.86 0 0 1 .95.16.64.64 0 0 1 .29.65.68.68 0 0 1-.45.69m-188.47 78.33l-2.76 5.49h-2.27l9-17.36h2.5l2.42 17.36h-2.19l-.72-5.49h-6zm5.82-1.7l-.67-5c-.1-.9-.23-2.19-.31-3.2H174c-.46 1-.9 2.11-1.42 3.17l-2.6 5h5zm13-9.95a19.81 19.81 0 0 1 3.74-.36 5.7 5.7 0 0 1 4 1.19 3.32 3.32 0 0 1 1.27 2.71 4.73 4.73 0 0 1-3.74 4.36 3.87 3.87 0 0 1 2.83 3.86 5.06 5.06 0 0 1-2.06 4 9.31 9.31 0 0 1-5.64 1.42 20.59 20.59 0 0 1-3.58-.26zm-.8 15.48a13.15 13.15 0 0 0 1.75.1c2.53 0 4.9-1.06 4.9-3.84 0-2-1.73-2.93-3.66-2.93h-1.75zm1.57-8.3h1.6c2.5 0 4.4-1.29 4.4-3.4 0-1.67-1.26-2.4-3.14-2.4a7.35 7.35 0 0 0-1.78.15zm12.49-7.18a19.81 19.81 0 0 1 3.74-.36 5.7 5.7 0 0 1 4 1.19 3.32 3.32 0 0 1 1.27 2.71 4.73 4.73 0 0 1-3.74 4.36 3.87 3.87 0 0 1 2.83 3.86 5.06 5.06 0 0 1-2.06 4 9.31 9.31 0 0 1-5.64 1.42 20.54 20.54 0 0 1-3.58-.26zm-.8 15.48a13.18 13.18 0 0 0 1.75.1c2.52 0 4.89-1.06 4.89-3.84 0-2-1.73-2.93-3.66-2.93h-1.74zm1.57-8.3h1.6c2.5 0 4.4-1.29 4.4-3.4 0-1.67-1.26-2.4-3.14-2.4a7.34 7.34 0 0 0-1.78.15zm12.78 4.47l-2.81 5.48h-2.26l9-17.36h2.5l2.42 17.36h-2.19l-.72-5.49h-6zm5.82-1.7l-.67-5c-.1-.9-.23-2.19-.31-3.2-.47 1-.91 2.11-1.42 3.17l-2.6 5h5zm13.28 1.7l-2.76 5.49h-2.26l9-17.36h2.5l2.42 17.36h-2.19l-.72-5.49h-6zm5.82-1.7l-.67-5c-.1-.9-.23-2.19-.31-3.2h-.05c-.46 1-.9 2.11-1.42 3.17l-2.6 5h5zm7.34-5.28l1.08 7.11c.18 1.42.36 2.37.39 3.07h.08c.28-.67.62-1.5 1.34-2.91l3.79-7.27h2.34l-6.93 12.47h-2.09l-2.16-12.47h2.16zm8.83 12.46l2.39-12.47h2.11l-2.4 12.47h-2.1zm2.78-15.92a1.43 1.43 0 0 1 1.39-1.44 1.26 1.26 0 0 1 1.29 1.34 1.42 1.42 0 0 1-1.47 1.44 1.22 1.22 0 0 1-1.21-1.34M270 159.65c0-.75.13-1.93.28-3.22-1.34 2.6-3.07 3.5-4.85 3.5-2.21 0-3.58-1.75-3.58-4.12a8.69 8.69 0 0 1 8.63-8.92 12.94 12.94 0 0 1 3.38.46l-1.29 6.52a27.84 27.84 0 0 0-.51 5.77h-2zm1.39-10.87a4.44 4.44 0 0 0-1.47-.18c-3.25 0-5.9 3.35-5.9 6.83 0 1.39.49 2.75 2.14 2.75s3.89-2.32 4.51-5.64zm9.15-4.58l-.57 3h3l-.34 1.67h-3l-1.14 6.05a9.06 9.06 0 0 0-.25 2 1.07 1.07 0 0 0 1.18 1.21 3.87 3.87 0 0 0 1-.1l-.1 1.67a5 5 0 0 1-1.65.23 2.32 2.32 0 0 1-2.63-2.42 11.72 11.72 0 0 1 .28-2.32l1.21-6.31h-1.78l.31-1.67h1.78l.44-2.32zm2.46 15.45l2.4-12.47h2.11l-2.37 12.47H283zm2.78-15.92a1.43 1.43 0 0 1 1.39-1.44 1.26 1.26 0 0 1 1.29 1.34 1.41 1.41 0 0 1-1.46 1.44 1.22 1.22 0 0 1-1.21-1.34m14.97 8.35c0 3.86-2.73 7.85-6.93 7.85-3.12 0-4.87-2.32-4.87-5.13 0-4.12 2.86-7.91 6.91-7.91 3.37 0 4.89 2.55 4.89 5.18m-9.58 2.65c0 2 1.13 3.5 2.93 3.5 2.52 0 4.43-3.25 4.43-6.15 0-1.44-.67-3.48-2.91-3.48-2.68 0-4.45 3.28-4.45 6.13m10.96 4.93l1.65-8.84c.28-1.39.46-2.6.59-3.63h1.91l-.29 2.45a5.48 5.48 0 0 1 4.61-2.73c1.5 0 3.17.85 3.17 3.45a12.08 12.08 0 0 1-.23 2l-1.39 7.29h-2.11l1.36-7.21a10 10 0 0 0 .16-1.6c0-1.24-.49-2.17-2-2.17s-3.68 1.83-4.25 4.92l-1.14 6.05h-2.11zm26.79-.51a8.12 8.12 0 0 1-3.61.77 4.48 4.48 0 0 1-4.79-4.82c0-4.25 3.15-8.17 7.63-8.17a6.44 6.44 0 0 1 2.6.54l-.62 1.7a4.81 4.81 0 0 0-2.11-.46c-3.25 0-5.28 3.2-5.28 6.13 0 2 1.05 3.32 3.09 3.32a6.5 6.5 0 0 0 2.88-.7zm13.95-7.06c0 3.86-2.73 7.85-6.93 7.85-3.12 0-4.87-2.32-4.87-5.13 0-4.12 2.86-7.91 6.91-7.91 3.37 0 4.89 2.55 4.89 5.18m-9.58 2.65c0 2 1.13 3.5 2.94 3.5 2.52 0 4.43-3.25 4.43-6.15 0-1.44-.67-3.48-2.91-3.48-2.68 0-4.45 3.28-4.45 6.13m10.96 4.93l1.65-8.84c.26-1.39.44-2.6.57-3.63h1.88l-.31 2.34a5.28 5.28 0 0 1 4.38-2.62 2.71 2.71 0 0 1 2.91 2.78 5.35 5.35 0 0 1 4.65-2.78 3 3 0 0 1 3 3.27 13 13 0 0 1-.21 2.11l-1.39 7.37h-2.09l1.34-7.19a8.48 8.48 0 0 0 .18-1.62c0-1.32-.49-2.17-1.88-2.17-1.55 0-3.4 1.8-3.91 4.58l-1.19 6.39h-2.07l1.39-7.32a8.13 8.13 0 0 0 .15-1.52c0-1.06-.28-2.14-1.85-2.14s-3.5 2.06-4 4.71l-1.13 6.26h-2.09zm19.57 5.1l2.5-13.14c.28-1.52.54-3.19.69-4.46h2l-.34 2.37h.05a5.5 5.5 0 0 1 4.48-2.62c2.68 0 3.81 2.21 3.81 4.51 0 4.41-3.14 8.53-7.29 8.53a5.45 5.45 0 0 1-2.68-.57l-1 5.38h-2.14zm3.51-7.19a3.84 3.84 0 0 0 2.4.69c2.75 0 5-3.42 5-6.69 0-1.31-.57-2.89-2.39-2.89-1.67 0-3.76 1.9-4.4 5.41zm19.28 2.09c0-.75.13-1.93.28-3.22-1.34 2.6-3.07 3.5-4.84 3.5-2.22 0-3.58-1.75-3.58-4.12a8.69 8.69 0 0 1 8.63-8.92 12.91 12.91 0 0 1 3.37.46l-1.29 6.52a28.34 28.34 0 0 0-.51 5.77h-2zm1.37-10.87a4.44 4.44 0 0 0-1.47-.18c-3.24 0-5.9 3.35-5.9 6.83 0 1.39.49 2.75 2.14 2.75s3.89-2.32 4.51-5.64zm3.72 10.87l1.65-8.84c.28-1.39.46-2.6.59-3.63h1.91l-.31 2.44h.05a5.49 5.49 0 0 1 4.61-2.73c1.5 0 3.17.85 3.17 3.45a12.08 12.08 0 0 1-.23 2l-1.39 7.29h-2.11l1.37-7.21a10.57 10.57 0 0 0 .15-1.6c0-1.24-.49-2.17-2-2.17s-3.68 1.83-4.25 4.92l-1.14 6.05h-2.11zm16.2-12.46l1.23 6.7c.28 1.44.44 2.37.57 3.3h.05c.33-.8.69-1.67 1.34-3.07l3.2-6.93h2.27l-4.69 9.48a24.14 24.14 0 0 1-4.3 6.55 7.93 7.93 0 0 1-3.61 2.16l-.54-1.85a7.66 7.66 0 0 0 2.29-1.18 9.15 9.15 0 0 0 2.42-2.89.73.73 0 0 0 .05-.57l-2.5-11.7h2.22z" fill="#fff"/></svg>